<svg width="30" height="30" viewBox="0 0 30 30" fill="none" xmlns="http://www.w3.org/2000/svg">
<path d="M23.4901 10.4044C24.3581 9.40489 24.8912 8.08824 24.8912 6.64198C24.8912 3.53109 22.4451 1 19.4378 1C16.4305 1 13.9844 3.53109 13.9844 6.64198H15.5066C15.5066 4.39926 17.2704 2.57486 19.4378 2.57486C21.6052 2.57486 23.369 4.39926 23.369 6.64198C23.369 8.8847 21.6052 10.7091 19.4378 10.7091C18.7428 10.7091 18.059 10.5188 17.4607 10.1581L16.6951 11.5192C17.5253 12.0194 18.4738 12.284 19.4378 12.284C20.4824 12.284 21.4558 11.9732 22.286 11.4442C22.378 11.5842 27.1463 13.3671 27.4786 21.6286C27.4957 22.0519 27.8324 22.3833 28.2382 22.3833C28.2493 22.3833 28.2597 22.3829 28.2709 22.3825C28.6909 22.3645 29.0172 21.9977 28.9993 21.5632C28.6731 13.4381 24.7271 10.9784 23.4901 10.4044Z" fill="#171717" stroke="#171717"/>
<path d="M16.0142 15.7198C16.9993 14.5389 17.5997 13.0054 17.5997 11.3268C17.5997 7.61182 14.6778 4.58936 11.087 4.58936C7.49626 4.58936 4.57517 7.61179 4.57517 11.3267C4.57517 13.0053 5.17526 14.5387 6.16016 15.7197C4.43129 16.7844 1 19.9381 1 28.2123C1 28.6472 1.34042 28.9998 1.76113 28.9998C2.18185 28.9998 2.52226 28.6472 2.52226 28.2123C2.52226 19.6999 6.34425 17.3204 7.35537 16.84C8.41333 17.609 9.69873 18.0645 11.087 18.0645C12.4753 18.0645 13.7609 17.609 14.819 16.84C15.8302 17.3208 19.6526 19.7001 19.6526 28.2123C19.6526 28.6472 19.993 28.9998 20.4137 28.9998C20.8344 28.9998 21.1748 28.6472 21.1748 28.2123C21.1748 19.9384 17.7433 16.7847 16.0142 15.7198ZM6.0974 11.3267C6.0974 8.47996 8.33541 6.16418 11.087 6.16418C13.8387 6.16418 16.0774 8.47996 16.0774 11.3267C16.0774 14.1735 13.8386 16.4896 11.087 16.4896C8.33544 16.4896 6.0974 14.1735 6.0974 11.3267Z" fill="#171717" stroke="#171717"/>
</svg>
