<svg width="44" height="32" viewBox="0 0 44 32" fill="none" xmlns="http://www.w3.org/2000/svg">
<path d="M34.5314 5.45877C32.6979 5.45877 31.2119 6.93338 31.2119 8.75276V11.0586C31.2119 12.8779 32.6979 14.3525 34.5314 14.3525C36.3649 14.3525 37.8509 12.8779 37.8509 11.0586V8.75276C37.8509 6.93338 36.3649 5.45877 34.5314 5.45877Z" stroke="#171717" stroke-width="2.5" stroke-miterlimit="10" stroke-linecap="round" stroke-linejoin="round"/>
<path d="M9.46891 5.45877C11.3024 5.45877 12.7884 6.93338 12.7884 8.75276V11.0586C12.7884 12.8779 11.3024 14.3525 9.46891 14.3525C7.63544 14.3525 6.14941 12.8779 6.14941 11.0586V8.75276C6.14941 6.93338 7.63544 5.45877 9.46891 5.45877Z" stroke="#171717" stroke-width="2.5" stroke-miterlimit="10" stroke-linecap="round" stroke-linejoin="round"/>
<path d="M22 1.99985C19.7084 1.99985 17.8506 3.84338 17.8506 6.11733V9.41132C17.8506 11.6853 19.7084 13.5288 22 13.5288C24.2915 13.5288 26.1493 11.6853 26.1493 9.41132V6.11733C26.1493 3.84338 24.2915 1.99985 22 1.99985Z" stroke="#171717" stroke-width="2.5" stroke-miterlimit="10" stroke-linecap="round" stroke-linejoin="round"/>
<path d="M22 19.5405V24.4814" stroke="#171717" stroke-width="2.5" stroke-miterlimit="10" stroke-linecap="round" stroke-linejoin="round"/>
<path d="M19.5103 22.0107H24.4895" stroke="#171717" stroke-width="2.5" stroke-miterlimit="10" stroke-linecap="round" stroke-linejoin="round"/>
<path d="M22.0002 13.529C16.8439 13.529 12.6636 17.6772 12.6636 22.7939V30H31.3358V22.7939C31.3369 17.6761 27.1565 13.529 22.0002 13.529Z" stroke="#171717" stroke-width="2.5" stroke-miterlimit="10" stroke-linecap="round" stroke-linejoin="round"/>
<path d="M29.0552 16.7253C30.4195 15.266 32.3669 14.3525 34.5312 14.3525C38.6563 14.3525 42.0001 17.6706 42.0001 21.764V27.1167H31.3357" stroke="#171717" stroke-width="2.5" stroke-miterlimit="10" stroke-linecap="round" stroke-linejoin="round"/>
<path d="M14.9449 16.7253C13.5806 15.266 11.6332 14.3525 9.46887 14.3525C5.34384 14.3525 2 17.6706 2 21.764V27.1167H12.6644" stroke="#171717" stroke-width="2.5" stroke-miterlimit="10" stroke-linecap="round" stroke-linejoin="round"/>
</svg>
