<svg width="40" height="60" viewBox="0 0 40 60" fill="none" xmlns="http://www.w3.org/2000/svg">
<path d="M20.2227 10.2607L20.3213 10.2754L20.4395 10.293H20.4404L20.5518 10.3213L20.6533 10.3467L20.7598 10.3848H20.7607C20.8062 10.401 20.8314 10.408 20.8604 10.4199V10.4209L20.959 10.4668L21.0605 10.5156L21.1514 10.5693L21.249 10.6289C21.2785 10.6486 21.3032 10.6683 21.3457 10.7002V10.6992L21.4258 10.7598L21.5908 10.9082L39.0908 28.4082C39.9146 29.232 39.9661 30.5362 39.2451 31.4199L39.0908 31.5908C38.2672 32.4144 36.9638 32.4656 36.0801 31.7451L35.9092 31.5908L22.25 17.9316V57.5C22.2498 58.7424 21.2424 59.75 20 59.75C18.7575 59.75 17.7502 58.7424 17.75 57.5V17.9316L4.09082 31.5908C3.26712 32.4143 1.96373 32.4657 1.08008 31.7451L0.90918 31.5908C0.0853179 30.767 0.0337748 29.4628 0.754883 28.5791L0.90918 28.4082L18.4092 10.9082L18.5742 10.7598V10.7588C18.5982 10.739 18.6094 10.7322 18.6533 10.6992L18.6543 10.7002L18.751 10.6289C18.7794 10.6098 18.8041 10.5966 18.8496 10.5693L18.8486 10.5684L18.9395 10.5156L19.041 10.4668H19.042C19.0859 10.446 19.1103 10.4331 19.1396 10.4209L19.1387 10.4199L19.2393 10.3848H19.2402L19.3467 10.3467H19.3477L19.4482 10.3213L19.5596 10.293H19.5605L19.6787 10.2754L19.7773 10.2607H19.7783C19.852 10.2535 19.926 10.25 20 10.25L20.2227 10.2607Z" fill="#808B97" stroke="#F0F2F3" stroke-width="0.5"/>
<path d="M2.5 0.25H37.5C38.7426 0.250039 39.75 1.25732 39.75 2.5C39.75 3.74263 38.7426 4.75 37.5 4.75H2.5C1.25742 4.74996 0.250024 3.74258 0.25 2.5C0.25 1.33489 1.1357 0.376722 2.27051 0.261719L2.5 0.25Z" fill="#808B97" stroke="#F0F2F3" stroke-width="0.5"/>
</svg>
